# xmcd CD database file
#
# Track frame offsets:
#	150
#	16288
#	32938
#	48063
#	62900
#	77463
#	92288
#	106525
#	119488
#	133375
#	153488
#	170263
#	186150
#
# Disc length: 2679 seconds
#
# Revision: 0
# Processed by: cddbd v1.5.2PL0 Copyright (c) Steve Scherf et al.
# Submitted via: CDex 1.70beta2
#
DISCID=9c0a750d
DTITLE=Various Artist - Heading' West
DYEAR=1990
DGENRE=Country
TTITLE0=Come what may
TTITLE1=To old to die
TTITLE2=Dreamin' of you
TTITLE3=Talk to me
TTITLE4=This moment
TTITLE5=I'm sorry
TTITLE6=Will tomorrow bring relief
TTITLE7=One night friend
TTITLE8=Restless mind
TTITLE9=Love at first sight
TTITLE10=Two of us
TTITLE11=Tell me your story
TTITLE12=I'm coming home
EXTD=YEAR: 1990
EXTT0=
EXTT1=
EXTT2=
EXTT3=
EXTT4=
EXTT5=
EXTT6=
EXTT7=
EXTT8=
EXTT9=
EXTT10=
EXTT11=
EXTT12=
PLAYORDER=
